<svg xmlns="http://www.w3.org/2000/svg" viewBox="0 0 430 96" role="img" aria-labelledby="title desc">
  <title id="title">Connect-ZA</title>
  <desc id="desc">Connect-ZA logo with an organic premium monogram and the slogan Connecting Professionals.</desc>
  <defs>
    <linearGradient id="mark-bg" x1="8" y1="8" x2="80" y2="88" gradientUnits="userSpaceOnUse">
      <stop stop-color="#101612"/>
      <stop offset="0.52" stop-color="#243227"/>
      <stop offset="1" stop-color="#3d2a1e"/>
    </linearGradient>
    <linearGradient id="mark-accent" x1="16" y1="18" x2="78" y2="80" gradientUnits="userSpaceOnUse">
      <stop stop-color="#f2c268"/>
      <stop offset="0.48" stop-color="#d98c47"/>
      <stop offset="1" stop-color="#a8bd73"/>
    </linearGradient>
    <linearGradient id="word-accent" x1="122" y1="62" x2="394" y2="62" gradientUnits="userSpaceOnUse">
      <stop stop-color="#d98c47"/>
      <stop offset="0.54" stop-color="#f2c268"/>
      <stop offset="1" stop-color="#a8bd73"/>
    </linearGradient>
  </defs>
  <rect x="5" y="5" width="86" height="86" rx="22" fill="url(#mark-bg)"/>
  <path d="M17 65c10 9 25 12 41 8 15-3 26-13 30-26" fill="none" stroke="#a8bd73" stroke-opacity="0.2" stroke-width="2"/>
  <path d="M50 23h23L39 73h26" fill="none" stroke="url(#mark-accent)" stroke-width="9" stroke-linecap="round" stroke-linejoin="round"/>
  <path d="M45 27c-15 0-27 10-27 23s12 23 27 23c7 0 13-2 19-7" fill="none" stroke="#fff7e8" stroke-width="9" stroke-linecap="round"/>
  <path d="M29 55c11-9 23-13 37-12" fill="none" stroke="#a8bd73" stroke-width="4" stroke-linecap="round"/>
  <circle cx="29" cy="55" r="4" fill="#f2c268"/>
  <circle cx="66" cy="43" r="4" fill="#d98c47"/>
  <path d="M66 18c11-4 20 2 21 14-11 4-20-2-21-14Z" fill="#a8bd73"/>
  <text x="112" y="48" fill="#fff7e8" font-family="Inter, Segoe UI, Arial, sans-serif" font-size="33" font-weight="900" letter-spacing="-1">Connect-ZA</text>
  <text x="114" y="70" fill="#cfc3a6" font-family="Inter, Segoe UI, Arial, sans-serif" font-size="13" font-weight="800" letter-spacing="2.5">CONNECTING PROFESSIONALS</text>
  <path d="M112 81h74c25 0 45-7 61-20 17-14 38-20 64-20h84" fill="none" stroke="url(#word-accent)" stroke-width="3" stroke-linecap="round" stroke-opacity="0.86"/>
  <circle cx="186" cy="81" r="4" fill="#d98c47"/>
  <circle cx="311" cy="41" r="4" fill="#a8bd73"/>
</svg>
