<svg xmlns="http://www.w3.org/2000/svg" viewBox="0 0 128 128" role="img" aria-labelledby="title desc">
  <title id="title">Connect-ZA icon</title>
  <desc id="desc">Organic premium Connect-ZA monogram with connected route lines.</desc>
  <defs>
    <linearGradient id="bg" x1="16" y1="12" x2="112" y2="118" gradientUnits="userSpaceOnUse">
      <stop stop-color="#101612"/>
      <stop offset="0.52" stop-color="#243227"/>
      <stop offset="1" stop-color="#3d2a1e"/>
    </linearGradient>
    <linearGradient id="accent" x1="24" y1="22" x2="104" y2="105" gradientUnits="userSpaceOnUse">
      <stop stop-color="#f2c268"/>
      <stop offset="0.48" stop-color="#d98c47"/>
      <stop offset="1" stop-color="#a8bd73"/>
    </linearGradient>
    <linearGradient id="leaf" x1="78" y1="22" x2="111" y2="58" gradientUnits="userSpaceOnUse">
      <stop stop-color="#a8bd73"/>
      <stop offset="1" stop-color="#f2c268"/>
    </linearGradient>
  </defs>
  <rect width="128" height="128" rx="28" fill="url(#bg)"/>
  <path d="M17 34c21-18 52-21 75-8 18 10 26 28 21 45-7 27-38 43-70 34-24-7-37-28-30-48 5-14 18-25 35-29" fill="none" stroke="#f2c268" stroke-opacity="0.2" stroke-width="2"/>
  <path d="M22 82c15 12 34 16 55 11 22-5 37-20 40-38" fill="none" stroke="#a8bd73" stroke-opacity="0.18" stroke-width="2"/>
  <path d="M71 32h31L58 96h35" fill="none" stroke="url(#accent)" stroke-width="12" stroke-linecap="round" stroke-linejoin="round"/>
  <path d="M63 36c-19 0-34 13-34 30s15 30 34 30c9 0 17-3 24-9" fill="none" stroke="#fff7e8" stroke-width="12" stroke-linecap="round"/>
  <path d="M42 73c14-12 29-17 47-16" fill="none" stroke="#a8bd73" stroke-width="5" stroke-linecap="round"/>
  <circle cx="42" cy="73" r="5" fill="#f2c268"/>
  <circle cx="89" cy="57" r="5" fill="#d98c47"/>
  <path d="M86 28c15-5 26 2 27 18-15 5-26-2-27-18Z" fill="url(#leaf)"/>
</svg>
